<svg xmlns="http://www.w3.org/2000/svg" viewBox="0 0 720 405" role="img" aria-label="LAST CIVILIAN EXIT"><rect width="720" height="405" fill="#142334"/><rect x="0" y="80" width="44" height="220" fill="#12202b"/><path d="M12 160v80m12-90v80" stroke="#bc794c" stroke-width="3"/><rect x="57" y="109" width="44" height="220" fill="#12202b"/><path d="M69 160v80m12-90v80" stroke="#bc794c" stroke-width="3"/><rect x="114" y="138" width="44" height="220" fill="#12202b"/><path d="M126 160v80m12-90v80" stroke="#bc794c" stroke-width="3"/><rect x="171" y="167" width="44" height="220" fill="#12202b"/><path d="M183 160v80m12-90v80" stroke="#bc794c" stroke-width="3"/><rect x="228" y="106" width="44" height="220" fill="#12202b"/><path d="M240 160v80m12-90v80" stroke="#bc794c" stroke-width="3"/><rect x="285" y="135" width="44" height="220" fill="#12202b"/><path d="M297 160v80m12-90v80" stroke="#bc794c" stroke-width="3"/><rect x="342" y="164" width="44" height="220" fill="#12202b"/><path d="M354 160v80m12-90v80" stroke="#bc794c" stroke-width="3"/><rect x="399" y="103" width="44" height="220" fill="#12202b"/><path d="M411 160v80m12-90v80" stroke="#bc794c" stroke-width="3"/><rect x="456" y="132" width="44" height="220" fill="#12202b"/><path d="M468 160v80m12-90v80" stroke="#bc794c" stroke-width="3"/><rect x="513" y="161" width="44" height="220" fill="#12202b"/><path d="M525 160v80m12-90v80" stroke="#bc794c" stroke-width="3"/><rect x="570" y="100" width="44" height="220" fill="#12202b"/><path d="M582 160v80m12-90v80" stroke="#bc794c" stroke-width="3"/><rect x="627" y="129" width="44" height="220" fill="#12202b"/><path d="M639 160v80m12-90v80" stroke="#bc794c" stroke-width="3"/><rect x="684" y="158" width="44" height="220" fill="#12202b"/><path d="M696 160v80m12-90v80" stroke="#bc794c" stroke-width="3"/><path d="M0 340l360-165 360 165v65H0" fill="#252d35"/><path d="M270 303l35-57h131l40 57v55H270z" fill="#718b91"/><path d="M318 260h105l18 35H297z" fill="#16313c"/><path d="M283 320h47m87 0h47" stroke="#fa704c" stroke-width="9"/><rect y="365" width="720" height="40" fill="#101720"/><text x="24" y="392" fill="#efb277" font-family="monospace" font-size="20" letter-spacing="3">BLACKLINE / LAST CIVILIAN EXIT</text></svg>